<svg width="45" height="45" viewBox="0 0 45 45" fill="none" xmlns="http://www.w3.org/2000/svg">
<rect x="0.5" y="0.5" width="44" height="44" stroke="#93825B"/>
<path d="M28.7851 30C28.7558 30 28.7411 29.956 28.7411 29.868C28.7411 29.78 28.7558 29.736 28.7851 29.736C29.1811 29.736 29.4745 29.6993 29.6651 29.626C29.8705 29.538 30.0098 29.3913 30.0831 29.186C30.1565 28.966 30.1931 28.6433 30.1931 28.218V24.104C30.1931 23.576 30.1345 23.1947 30.0171 22.96C29.9145 22.7253 29.7311 22.608 29.4671 22.608C29.2031 22.608 28.8731 22.7107 28.4771 22.916H28.4551C28.3965 22.916 28.3525 22.8793 28.3231 22.806C28.2938 22.7327 28.3011 22.6813 28.3451 22.652L31.2051 21.332L31.2931 21.31C31.3225 21.31 31.3591 21.332 31.4031 21.376C31.4471 21.4053 31.4691 21.442 31.4691 21.486C31.4691 21.5887 31.4618 21.882 31.4471 22.366C31.4325 22.85 31.4251 23.422 31.4251 24.082V28.218C31.4251 28.658 31.4618 28.9807 31.5351 29.186C31.6085 29.3913 31.7405 29.538 31.9311 29.626C32.1218 29.6993 32.4151 29.736 32.8111 29.736C32.8551 29.736 32.8771 29.78 32.8771 29.868C32.8771 29.956 32.8551 30 32.8111 30C32.4738 30 32.2025 29.9927 31.9971 29.978L30.8091 29.956L29.6211 29.978C29.4158 29.9927 29.1371 30 28.7851 30ZM30.6331 18.736C30.3251 18.736 30.0831 18.6553 29.9071 18.494C29.7458 18.3327 29.6651 18.1053 29.6651 17.812C29.6651 17.5187 29.7458 17.2913 29.9071 17.13C30.0831 16.9687 30.3251 16.888 30.6331 16.888C30.9265 16.888 31.1538 16.9687 31.3151 17.13C31.4765 17.2913 31.5571 17.5187 31.5571 17.812C31.5571 18.1053 31.4765 18.3327 31.3151 18.494C31.1538 18.6553 30.9265 18.736 30.6331 18.736ZM44.5248 29.736C44.5688 29.736 44.5908 29.78 44.5908 29.868C44.5908 29.956 44.5688 30 44.5248 30C44.1874 30 43.9234 29.9927 43.7328 29.978L42.5448 29.956L41.3348 29.978C41.1441 29.9927 40.8801 30 40.5428 30C40.4988 30 40.4768 29.956 40.4768 29.868C40.4768 29.78 40.4988 29.736 40.5428 29.736C40.9388 29.736 41.2321 29.6993 41.4228 29.626C41.6134 29.538 41.7381 29.3913 41.7968 29.186C41.8701 28.9807 41.9068 28.658 41.9068 28.218V24.654C41.9068 23.7887 41.7381 23.1507 41.4008 22.74C41.0781 22.3293 40.5721 22.124 39.8828 22.124C39.4281 22.124 38.9661 22.2487 38.4968 22.498C38.0421 22.7327 37.6241 23.0627 37.2428 23.488V28.218C37.2428 28.658 37.2721 28.9807 37.3308 29.186C37.4041 29.3913 37.5361 29.538 37.7268 29.626C37.9174 29.6993 38.2108 29.736 38.6068 29.736C38.6508 29.736 38.6728 29.78 38.6728 29.868C38.6728 29.956 38.6508 30 38.6068 30C38.2694 30 38.0054 29.9927 37.8148 29.978L36.6268 29.956L35.4168 29.978C35.2261 29.9927 34.9621 30 34.6248 30C34.5808 30 34.5588 29.956 34.5588 29.868C34.5588 29.78 34.5808 29.736 34.6248 29.736C35.0208 29.736 35.3141 29.6993 35.5048 29.626C35.6954 29.538 35.8201 29.3913 35.8788 29.186C35.9521 28.9807 35.9888 28.658 35.9888 28.218V23.862C35.9888 23.3633 35.9301 23.004 35.8128 22.784C35.6954 22.564 35.4974 22.454 35.2188 22.454C34.9841 22.454 34.5881 22.564 34.0308 22.784H33.9868C33.9281 22.784 33.8841 22.7547 33.8548 22.696C33.8401 22.6227 33.8621 22.5713 33.9208 22.542L36.4728 21.332C36.5021 21.3173 36.5461 21.31 36.6048 21.31C36.7368 21.31 36.8761 21.4787 37.0228 21.816C37.1694 22.1533 37.2428 22.586 37.2428 23.114C37.8001 22.4687 38.3501 21.992 38.8928 21.684C39.4501 21.376 40.0221 21.222 40.6088 21.222C41.4301 21.222 42.0608 21.4493 42.5008 21.904C42.9408 22.3587 43.1608 23.026 43.1608 23.906V28.218C43.1608 28.658 43.1901 28.9807 43.2488 29.186C43.3221 29.3913 43.4541 29.538 43.6448 29.626C43.8354 29.6993 44.1288 29.736 44.5248 29.736Z" fill="#93825B"/>
</svg>
