<svg width="27" height="35" viewBox="0 0 27 35" fill="none" xmlns="http://www.w3.org/2000/svg">
<rect x="1.25" y="0.25" width="25.5" height="34.5" stroke="#93825B" stroke-width="0.5"/>
<path d="M16.1439 19.2559C19.6565 18.6424 22.3265 15.5779 22.3265 11.8897C22.3265 7.75967 18.9785 4.41165 14.8485 4.41165C10.7185 4.41165 7.37051 7.75967 7.37051 11.8897C7.37051 13.8101 8.0944 15.5614 9.28418 16.8856" stroke="#93825B" stroke-width="0.4"/>
<path d="M1.18835 29.878L3.54363 23.8131L4.13245 22.5766L4.63295 21.6345L5.3101 20.6629L6.39941 19.5442L7.72426 18.5726L9.19631 17.6894L9.01966 17.4539V17.1594L9.19631 16.9239L9.40239 16.7178L9.49072 16.4529L9.66736 16.1879L9.93233 16.0996L10.0795 15.864L10.3445 15.7168L10.8156 15.5107L11.11 15.2752V15.128L10.9628 14.9219V14.6275L10.8156 14.4214L10.7272 14.127V13.9209L10.6978 13.5676L10.58 13.3027L10.2856 12.8611L10.1973 12.5666V12.1545L10.3445 11.7717L10.4917 11.654L10.3445 11.4773L10.2856 11.1829L10.3445 10.8296L10.4917 10.4469L10.7272 10.1525L10.8156 9.97584L10.9039 9.76975L11.0511 9.5931L11.2572 9.47534L11.3161 9.32813L11.4633 9.12205L11.6399 8.91596L11.8166 8.85708L11.9932 8.79819L12.1698 8.59211L12.4054 8.32714L12.7292 8.09161L12.9059 7.97385L13.2003 7.88552L13.5536 7.7972H13.848L13.9952 7.70888L14.2013 7.59111L14.4662 7.50279L14.7901 7.44391H15.0551L15.4967 7.53223L15.85 7.65H16.1444L16.5566 7.73832L16.9982 7.94441L17.3515 8.17993L17.7048 8.59211L17.9992 9.00428L18.3819 9.41646L18.6763 9.85807L18.9413 10.3291L19.0885 10.653L19.1474 10.9474V11.2124V11.5362L19.1179 11.7717L19.2357 11.8306L19.3829 12.0073L19.5007 12.2428V12.4489L19.4712 12.7727L19.3829 13.0083L19.3535 13.0966V13.2143L19.4123 13.3321V13.6265L19.3535 13.8032L19.2651 13.9798L19.1179 14.127L18.9413 14.2448L18.8824 14.3331V14.5097L18.853 14.7747L18.7646 14.9514L18.588 15.128L18.3819 15.2458L18.2053 15.3047L18.0875 15.2752L17.9992 15.3047L17.9108 15.4813L17.7048 15.5991L17.3515 15.6874L17.2926 15.7757L17.2043 15.8935L16.9982 15.9818L16.7626 16.0407L16.586 16.3057L16.2916 16.6589L16.0266 16.865L15.6733 17.1006L15.4672 17.1889L15.4084 17.2478L15.4672 17.3361L15.6144 17.4833L15.6733 17.6599V17.9543L15.6144 18.131L15.5556 18.2782L15.7028 18.396L15.8794 18.5432L15.9383 18.7198V18.867L15.8794 18.9553L15.9383 19.0437L16.0561 19.1909V19.3381L15.9972 19.4558L15.9383 19.5147L16.0561 19.6914L16.6449 20.4568L17.5281 21.8994L18.1464 23.1654L18.6763 24.7552L18.853 25.8445L18.9707 26.6983V26.9633L19.6479 27.9643L20.325 29.3775L20.8255 30.8495L21.061 31.9094L21.2082 32.6454L21.7676 33.4992L22.592 34.618H1.18835L1.18835 29.878ZM1.18835 29.878V14.3331" stroke="#93825B" stroke-width="0.4"/>
<path d="M1.82314 13.0971L1.40172 13.5968L1.1748 13.8908V29.2646L1.23964 29.2352L1.56381 28.5003L1.75831 28.0594L1.95281 27.589L2.21215 27.0011L2.40665 26.5308L2.6984 25.8547L3.05499 25.0316L3.24949 24.5613L3.41157 24.1792L3.76816 23.3561L4.22199 22.4742L4.4165 22.1215L4.74067 21.563L4.96758 21.1808L5.48625 20.5048L5.61592 20.3284L5.74559 20.1814L6.06976 19.8874L6.36151 19.5935L6.62085 19.3583L6.9126 19.0938L7.4961 18.7116L8.01477 18.3589L8.11202 18.2707L7.6906 17.918L7.26918 17.6534L6.88018 17.33L6.75051 16.9773L6.55601 16.0073L6.42634 15.243L6.10218 14.2435L5.68076 13.3911L5.29175 12.7444L4.8055 12.2446L4.22199 12.0095L3.63849 11.9507L3.02257 12.1271L2.34181 12.6268L1.82314 13.0971Z" stroke="#93825B" stroke-width="0.4"/>
<path d="M16.7863 20.356L16.6232 20.445L16.7211 20.6527L17.0472 21.1275L17.3408 21.5725L17.4712 21.7506L17.6343 22.0473L18.0257 22.7891L18.1562 23.0264L18.2214 23.1748L18.7433 24.599L18.8411 25.0144L19.0368 26.2309L19.102 26.5869V26.8837L19.1673 27.0023L19.8522 27.9221L20.1131 28.4265C20.1131 28.4265 20.1621 28.4985 20.211 28.5156C20.3343 28.5586 20.2762 28.1892 20.2762 28.1892V27.7441V27.3287L20.211 26.943V26.6463L20.2762 26.7353L20.5697 27.5067L20.6676 27.8035L20.8633 28.2485L21.0264 28.5749L21.2547 28.8123L21.3851 28.8716L21.4504 28.8419L21.5808 29.198L21.9396 30.0881L22.331 31.0376L22.7876 31.7497L23.2442 32.3728L23.5704 32.6398L23.7987 32.6992L23.9292 32.6695L24.0596 32.5212L24.0922 32.4321L24.5815 33.2926L25.0055 33.975L25.5273 34.6278H26.7667V25.7562L26.6689 25.4891L26.5058 24.688L26.3427 24.1836L26.2449 23.7385L26.0492 23.2044L25.7556 22.3143L25.5599 21.6912L25.1686 20.6527L24.875 19.7626L24.6467 19.1989L24.5162 18.8131L24.2879 18.3087L24.0922 17.923L23.6682 17.3593L23.1464 16.9142L22.755 16.6472L22.4288 16.5285L22.0374 16.4395H21.7113L21.483 16.5285L21.222 16.6472L20.9285 16.8845L20.7002 17.0922L20.4719 17.4779L20.3414 17.9823L20.211 18.3977L20.0479 18.9318L19.95 19.0802L19.5913 19.2879L19.1999 19.4659L18.7759 19.6736L18.4497 19.8516L18.0583 20.178L17.7974 20.4154L17.6343 20.445L17.406 20.4154L17.0472 20.356H16.7863Z" stroke="#93825B" stroke-width="0.4"/>
<path d="M11.1396 15.1867L9.75585 18.6607L8.60765 22.5175L12.3467 34.6177" stroke="#93825B" stroke-width="0.4"/>
<path d="M15.8794 19.4851L16.3505 23.7835V29.9661L14.4957 30.7021H11.2867" stroke="#93825B" stroke-width="0.4"/>
<path d="M9.54956 19.4851L10.4917 20.0739L11.5221 20.4566L12.9353 20.6627L14.2601 20.7805H14.8784L15.9383 20.6627" stroke="#93825B" stroke-width="0.4"/>
</svg>
