<svg width="27" height="36" viewBox="0 0 27 36" fill="none" xmlns="http://www.w3.org/2000/svg">
<rect width="26.0069" height="36" fill="#93825B"/>
<circle cx="14.3383" cy="12.0414" r="7.88276" fill="#C9B27C"/>
<path d="M0 31.0035L2.48276 24.6104L3.10345 23.3069L3.63103 22.3138L4.34483 21.2897L5.4931 20.1104L6.88965 19.0862L8.44138 18.1552L8.25517 17.9069V17.5966L8.44138 17.3483L8.65862 17.1311L8.75172 16.8517L8.93793 16.5724L9.21724 16.4793L9.37241 16.2311L9.65172 16.0759L10.1483 15.8586L10.4586 15.6104V15.4552L10.3034 15.2379V14.9276L10.1483 14.7104L10.0552 14.4V14.1828L10.0241 13.8104L9.9 13.5311L9.58965 13.0655L9.49655 12.7552V12.3207L9.65172 11.9173L9.80689 11.7931L9.65172 11.6069L9.58965 11.2966L9.65172 10.9242L9.80689 10.5207L10.0552 10.2104L10.1483 10.0242L10.2414 9.80692L10.3965 9.62071L10.6138 9.49657L10.6759 9.3414L10.831 9.12416L11.0172 8.90692L11.2034 8.84485L11.3897 8.78278L11.5759 8.56554L11.8241 8.28623L12.1655 8.03795L12.3517 7.91381L12.6621 7.82071L13.0345 7.72761H13.3448L13.5 7.6345L13.7172 7.51037L13.9965 7.41726L14.3379 7.35519H14.6172L15.0828 7.4483L15.4552 7.57244H15.7655L16.2 7.66554L16.6655 7.88278L17.0379 8.13106L17.4103 8.56554L17.7207 9.00002L18.1241 9.4345L18.4345 9.90002L18.7138 10.3966L18.869 10.738L18.931 11.0483V11.3276V11.669L18.9 11.9173L19.0241 11.9793L19.1793 12.1655L19.3034 12.4138V12.6311L19.2724 12.9724L19.1793 13.2207L19.1483 13.3138V13.438L19.2103 13.5621V13.8724L19.1483 14.0586L19.0552 14.2448L18.9 14.4L18.7138 14.5242L18.6517 14.6173V14.8035L18.6207 15.0828L18.5276 15.269L18.3414 15.4552L18.1241 15.5793L17.9379 15.6414L17.8138 15.6104L17.7207 15.6414L17.6276 15.8276L17.4103 15.9517L17.0379 16.0448L16.9759 16.1379L16.8828 16.2621L16.6655 16.3552L16.4172 16.4173L16.231 16.6966L15.9207 17.069L15.6414 17.2862L15.269 17.5345L15.0517 17.6276L14.9896 17.6897L15.0517 17.7828L15.2069 17.9379L15.269 18.1242V18.4345L15.2069 18.6207L15.1448 18.7759L15.3 18.9L15.4862 19.0552L15.5483 19.2414V19.3966L15.4862 19.4897L15.5483 19.5828L15.6724 19.7379V19.8931L15.6103 20.0173L15.5483 20.0793L15.6724 20.2655L16.2931 21.0724L17.2241 22.5931L17.8759 23.9276L18.4345 25.6035L18.6207 26.7517L18.7448 27.6517V27.931L19.4586 28.9862L20.1724 30.4759L20.7 32.0276L20.9483 33.1448L21.1034 33.9207L21.6931 34.8207L22.5621 36H0L0 31.0035Z" fill="#DFDAB0"/>
<path d="M0.62649 13.8083L0.219272 14.335L0 14.6448V30.8482L0.062649 30.8173L0.375894 30.0427L0.563841 29.578L0.751788 29.0823L1.00238 28.4626L1.19033 27.9669L1.47225 27.2544L1.81682 26.3869L2.00477 25.8912L2.16139 25.4884L2.50596 24.6209L2.9445 23.6915L3.13245 23.3197L3.4457 22.731L3.66497 22.3283L4.16616 21.6157L4.29146 21.4298L4.41676 21.2749L4.73 20.9651L5.01192 20.6552L5.26252 20.4074L5.54444 20.1285L6.10828 19.7258L6.60947 19.354L6.70345 19.2611L6.29623 18.8893L5.88901 18.6104L5.51311 18.2696L5.38782 17.8979L5.19987 16.8755L5.07457 16.0699L4.76133 15.0166L4.35411 14.1181L3.97821 13.4365L3.50835 12.9098L2.9445 12.6619L2.38066 12.6L1.7855 12.7859L1.12768 13.3126L0.62649 13.8083Z" fill="#E3CA8D"/>
<path d="M16.4798 21.0481L16.3241 21.1413L16.4175 21.3589L16.7289 21.8563L17.0091 22.3225L17.1336 22.5091L17.2893 22.8199L17.6629 23.597L17.7874 23.8457L17.8497 24.0011L18.3478 25.4932L18.4412 25.9284L18.628 27.2029L18.6903 27.5759V27.8868L18.7526 28.0111L19.4064 28.9748L19.6555 29.5032L19.7489 29.5965L19.8111 29.2545V28.7882V28.3531L19.7489 27.9489V27.6381L19.8111 27.7314L20.0914 28.5396L20.1848 28.8504L20.3716 29.3167L20.5272 29.6586L20.7452 29.9073L20.8697 29.9695L20.932 29.9384L21.0565 30.3114L21.399 31.244L21.7726 32.2387L22.2085 32.9847L22.6444 33.6375L22.9557 33.9173L23.1736 33.9795L23.2982 33.9484L23.4227 33.7929L23.4539 33.6997L23.9209 34.6012L24.3256 35.3161L24.8238 36H26.0069V26.7055L25.9135 26.4258L25.7578 25.5865L25.6021 25.058L25.5087 24.5918L25.3219 24.0322L25.0417 23.0997L24.8549 22.4469L24.4813 21.3589L24.2011 20.4264L23.9831 19.8357L23.8586 19.4316L23.6407 18.9032L23.4539 18.4991L23.0491 17.9085L22.551 17.4422L22.1774 17.1624L21.866 17.0381L21.4924 16.9448H21.1811L20.9631 17.0381L20.714 17.1624L20.4338 17.4111L20.2159 17.6287L19.998 18.0328L19.8734 18.5612L19.7489 18.9964L19.5932 19.556L19.4998 19.7114L19.1573 19.929L18.7837 20.1155L18.379 20.3331L18.0676 20.5196L17.694 20.8615L17.4449 21.1102L17.2893 21.1413L17.0713 21.1102L16.7289 21.0481H16.4798Z" fill="#E3CA8D"/>
</svg>
