<svg width="45" height="45" viewBox="0 0 45 45" fill="none" xmlns="http://www.w3.org/2000/svg">
<rect x="0.5" y="0.5" width="44" height="44" stroke="#93825B"/>
<path d="M34.1363 21.508C34.1656 21.508 34.1803 21.552 34.1803 21.64C34.1803 21.728 34.1656 21.772 34.1363 21.772C33.755 21.772 33.4323 21.8893 33.1683 22.124C32.919 22.3587 32.677 22.7767 32.4423 23.378L29.6923 29.978C29.663 30.0513 29.5823 30.088 29.4503 30.088C29.3183 30.088 29.2376 30.0513 29.2083 29.978L26.1283 23.334C25.835 22.7033 25.5856 22.2853 25.3803 22.08C25.1896 21.8747 24.9476 21.772 24.6543 21.772C24.6103 21.772 24.5883 21.728 24.5883 21.64C24.5883 21.552 24.6103 21.508 24.6543 21.508C24.9476 21.508 25.175 21.5153 25.3363 21.53L26.1723 21.552L27.6023 21.53C27.8223 21.5153 28.1156 21.508 28.4823 21.508C28.5263 21.508 28.5483 21.552 28.5483 21.64C28.5483 21.728 28.5263 21.772 28.4823 21.772C27.6023 21.772 27.1623 21.948 27.1623 22.3C27.1623 22.4027 27.1916 22.5127 27.2503 22.63L29.9343 28.306L32.0023 23.268C32.105 22.9893 32.1563 22.7767 32.1563 22.63C32.1563 22.3367 32.017 22.124 31.7383 21.992C31.4596 21.8453 31.0196 21.772 30.4183 21.772C30.389 21.772 30.3743 21.728 30.3743 21.64C30.3743 21.552 30.389 21.508 30.4183 21.508C30.8143 21.508 31.115 21.5153 31.3203 21.53L32.6403 21.552L33.4103 21.53C33.557 21.5153 33.799 21.508 34.1363 21.508ZM44.8194 29.736C44.8634 29.736 44.8854 29.78 44.8854 29.868C44.8854 29.956 44.8634 30 44.8194 30C44.482 30 44.2107 29.9927 44.0054 29.978L42.8174 29.956L41.2334 29.978C40.9987 29.9927 40.6834 30 40.2874 30C40.258 30 40.2434 29.956 40.2434 29.868C40.2434 29.78 40.258 29.736 40.2874 29.736C41.0207 29.736 41.3874 29.5967 41.3874 29.318C41.3874 29.186 41.3214 29.0247 41.1894 28.834L38.4834 25.16L37.3834 26.018V28.218C37.3834 28.6433 37.42 28.966 37.4934 29.186C37.5667 29.3913 37.6987 29.538 37.8894 29.626C38.08 29.6993 38.3734 29.736 38.7694 29.736C38.8134 29.736 38.8354 29.78 38.8354 29.868C38.8354 29.956 38.8134 30 38.7694 30C38.432 30 38.1607 29.9927 37.9554 29.978L36.7674 29.956L35.5794 29.978C35.374 29.9927 35.1027 30 34.7654 30C34.7214 30 34.6994 29.956 34.6994 29.868C34.6994 29.78 34.7214 29.736 34.7654 29.736C35.1614 29.736 35.4547 29.6993 35.6454 29.626C35.836 29.538 35.968 29.3913 36.0414 29.186C36.1147 28.966 36.1514 28.6433 36.1514 28.218V16.844C36.1514 16.316 36.1 15.9347 35.9974 15.7C35.8947 15.4653 35.7114 15.348 35.4474 15.348C35.2274 15.348 34.89 15.4507 34.4354 15.656H34.3914C34.3474 15.656 34.3107 15.6193 34.2814 15.546C34.252 15.4727 34.2667 15.4287 34.3254 15.414L37.0754 14.072L37.1854 14.05C37.2294 14.05 37.2734 14.072 37.3174 14.116C37.3614 14.1453 37.3834 14.182 37.3834 14.226V25.666L40.3314 23.29C40.8007 22.9233 41.0354 22.6007 41.0354 22.322C41.0354 21.9553 40.6174 21.772 39.7814 21.772C39.7374 21.772 39.7154 21.728 39.7154 21.64C39.7154 21.552 39.7374 21.508 39.7814 21.508C40.1774 21.508 40.478 21.5153 40.6834 21.53L42.2894 21.552L43.7634 21.53C43.954 21.5153 44.218 21.508 44.5554 21.508C44.5994 21.508 44.6214 21.552 44.6214 21.64C44.6214 21.728 44.5994 21.772 44.5554 21.772C44.0127 21.772 43.4114 21.904 42.7514 22.168C42.0914 22.432 41.4314 22.828 40.7714 23.356L39.4954 24.368L42.2894 28.218C43.0227 29.23 43.866 29.736 44.8194 29.736Z" fill="#93825B"/>
</svg>
